<svg width="70" height="70" viewBox="0 0 70 70" fill="none" xmlns="http://www.w3.org/2000/svg">
<g clip-path="url(#clip0_29_13)">
<path d="M15.3825 30.625C18.411 30.625 21.3715 31.5231 23.8897 33.2056C26.4078 34.8882 28.3704 37.2797 29.5294 40.0777C30.6884 42.8757 30.9916 45.9545 30.4008 48.9248C29.8099 51.8952 28.3516 54.6236 26.2101 56.7651C24.0686 58.9066 21.3402 60.3649 18.3698 60.9558C15.3995 61.5466 12.3207 61.2434 9.52266 60.0844C6.72467 58.9254 4.33318 56.9628 2.65062 54.4447C0.968062 51.9265 0.07 48.966 0.07 45.9375L0 43.75C0 35.6277 3.22655 27.8382 8.96985 22.0949C14.7132 16.3516 22.5027 13.125 30.625 13.125V21.875C27.7511 21.8673 24.9041 22.4294 22.2488 23.5287C19.5934 24.6281 17.1824 26.243 15.155 28.28C14.367 29.0665 13.6401 29.9118 12.9806 30.8087C13.7638 30.6862 14.5644 30.6206 15.3781 30.6206L15.3825 30.625ZM54.7575 30.625C57.786 30.625 60.7465 31.5231 63.2647 33.2056C65.7828 34.8882 67.7454 37.2797 68.9044 40.0777C70.0634 42.8757 70.3666 45.9545 69.7758 48.9248C69.1849 51.8952 67.7266 54.6236 65.5851 56.7651C63.4436 58.9066 60.7152 60.3649 57.7448 60.9558C54.7745 61.5466 51.6957 61.2434 48.8977 60.0844C46.0997 58.9254 43.7082 56.9628 42.0256 54.4447C40.3431 51.9265 39.445 48.966 39.445 45.9375L39.375 43.75C39.375 35.6277 42.6016 27.8382 48.3449 22.0949C54.0882 16.3516 61.8777 13.125 70 13.125V21.875C67.1261 21.8673 64.2791 22.4294 61.6238 23.5287C58.9684 24.6281 56.5574 26.243 54.53 28.28C53.742 29.0665 53.0151 29.9118 52.3556 30.8087C53.1388 30.6862 53.9394 30.6206 54.7575 30.6206V30.625Z" fill="#BFBFBF"/>
</g>
<defs>
<clipPath id="clip0_29_13">
<rect width="70" height="70" fill="white"/>
</clipPath>
</defs>
</svg>
