<svg width="20" height="20" viewBox="0 0 20 20" fill="none" xmlns="http://www.w3.org/2000/svg">
<path d="M2.84501 11.4817L1.66667 12.66L5.79084 14.4275L7.55917 18.5525L8.73751 17.3742L8.14834 14.4275L10.9092 11.6667L13.9175 18.0867L15.0333 16.9708L14.0417 8.53499L16.3983 6.17749C16.5575 6.02375 16.6845 5.83984 16.7718 5.6365C16.8592 5.43316 16.9052 5.21446 16.9071 4.99316C16.909 4.77186 16.8668 4.5524 16.783 4.34757C16.6992 4.14274 16.5755 3.95666 16.419 3.80017C16.2625 3.64368 16.0764 3.51992 15.8716 3.43612C15.6668 3.35232 15.4473 3.31015 15.226 3.31207C15.0047 3.314 14.786 3.35998 14.5827 3.44732C14.3793 3.53467 14.1954 3.66164 14.0417 3.82083L11.6225 6.23999L3.18667 5.24749L2.13251 6.30249L8.50251 9.36082L5.79167 12.0717L2.84501 11.4817V11.4817Z" fill="#3E86F5"/>
</svg>
