<svg width="30" height="30" viewBox="0 0 30 30" fill="none" xmlns="http://www.w3.org/2000/svg">
<path d="M25.1198 11.25C26.901 11.25 30 12.9492 30 15C30 17.1094 26.901 18.75 25.1198 18.75H19.0469L13.8125 29.0566C13.5156 29.6367 12.9635 30 12.3646 30H9.4375C8.88542 30 8.48437 29.4023 8.63542 28.8047L11.1927 18.75H5.83333L3.58333 22.125C3.42604 22.3594 3.17917 22.5 2.91667 22.5H0.730729C0.327292 22.5 0 22.1309 0 21.627C0 21.6035 0.00947917 21.5273 0.028125 21.4512L1.66667 15L0.028125 8.54883C0.00947917 8.47266 0 8.39648 0 8.32031C0 7.86914 0.327292 7.5 0.730729 7.5H2.91667C3.17917 7.5 3.42604 7.64062 3.58333 7.875L5.83333 11.25H11.1927L8.63542 1.19531C8.48437 0.595898 8.88542 0 9.4375 0H12.3646C12.9635 0 13.5156 0.360527 13.8125 0.944531L19.0469 11.25H25.1198V11.25Z" fill="#999999"/>
</svg>
