<svg width="20" height="20" viewBox="0 0 20 20" fill="none" xmlns="http://www.w3.org/2000/svg">
<path d="M17.7363 6.89649L12.7773 6.17579L10.5605 1.68165C10.4999 1.5586 10.4003 1.45899 10.2773 1.39844C9.96869 1.2461 9.59369 1.37305 9.4394 1.68165L7.2226 6.17579L2.26362 6.89649C2.1269 6.91602 2.0019 6.98048 1.9062 7.07813C1.7905 7.19705 1.72674 7.35704 1.72894 7.52294C1.73113 7.68884 1.7991 7.84709 1.91791 7.9629L5.5058 11.4609L4.65815 16.4004C4.63827 16.5153 4.65099 16.6335 4.69485 16.7415C4.73872 16.8496 4.81198 16.9432 4.90633 17.0117C5.00068 17.0802 5.11234 17.1209 5.22865 17.1292C5.34497 17.1375 5.46128 17.1131 5.5644 17.0586L9.99994 14.7266L14.4355 17.0586C14.5566 17.1231 14.6972 17.1445 14.832 17.1211C15.1718 17.0625 15.4003 16.7402 15.3417 16.4004L14.4941 11.4609L18.082 7.9629C18.1796 7.8672 18.2441 7.7422 18.2636 7.60548C18.3163 7.26368 18.0781 6.94727 17.7363 6.89649V6.89649Z" fill="#F8CE01"/>
</svg>
